<svg xmlns="http://www.w3.org/2000/svg" xmlns:xlink="http://www.w3.org/1999/xlink" width="0" height="0" style="position:absolute">
	
		<symbol id="2mclogo" viewBox="0 0 252.3 43.9">
			<path d="M43 22.5c0 11.8-9.7 21.4-21.5 21.4C9.6 43.9 0 34.3 0 22.4c0-1.1.9-2 2-2s2 .9 2 2c0 9.7 7.9 17.5 17.5 17.5 9.7 0 17.5-7.8 17.5-17.5 0-2.1.9-4.2 2.3-5.7 1.4-1.4 3.4-2.3 5.7-2.3 2.2 0 4.2.9 5.7 2.3 1.4 1.4 2.3 3.5 2.3 5.7s-.9 4.2-2.3 5.7c-1.4 1.4-3.5 2.3-5.7 2.3-.3 0-.7 0-1-.1-.4 0-.7-.1-1-.2-1.1-.3-1.7-1.4-1.4-2.4.3-1.1 1.4-1.7 2.4-1.4.2.1.4.1.5.1h.5c1.1 0 2.1-.5 2.9-1.2.7-.7 1.2-1.7 1.2-2.9 0-1.1-.5-2.1-1.2-2.9-.7-.7-1.7-1.2-2.9-1.2-1.1 0-2.1.5-2.9 1.2-.7 1-1.1 2-1.1 3.1zm-31.9-11c0-1.4 1.1-2.5 2.5-2.5s2.5 1.1 2.5 2.5v6.2c0 1.4-1.1 2.5-2.5 2.5s-2.5-1.1-2.5-2.5v-6.2zm12.1-.7c-1 .8-2.3.8-3.3 0l-7.8-6.4C11 3.5 10.9 2 11.8.9s2.5-1.2 3.6-.3l6.2 5.1L27.8.6c1.1-.9 2.7-.7 3.6.3.9 1.1.7 2.6-.3 3.5l-7.9 6.4zm3.6.7c0-1.4 1.1-2.5 2.5-2.5s2.5 1.1 2.5 2.5v6.2c0 1.4-1.1 2.5-2.5 2.5s-2.5-1.1-2.5-2.5v-6.2zm9.1 11.8c0 8-6.5 14.4-14.4 14.4-8 0-14.4-6.5-14.4-14.4h28.8zm36.4-.3c.5-.7.7-1.3.7-2s-.3-1.2-.8-1.7-1.2-.7-1.9-.7c-1.4 0-2.5.7-3.4 2.1l-2.3-1.3c.7-1.1 1.5-1.9 2.4-2.5s2-.8 3.4-.8 2.6.4 3.7 1.3 1.6 2.1 1.6 3.6c0 .9-.2 1.7-.7 2.5-.4.8-1.3 1.8-2.5 3l-3.9 4h7.6v2.7H64.7v-2.4l5.1-5.1c1.2-1.1 2-2 2.5-2.7zm10.4 10.2h-2.8V16.4h4.4l5.1 10.5 5.1-10.5h4.4v16.8h-2.8V20.1l-5.9 11.6h-1.6l-5.8-11.6v13.1h-.1zm24.5-3.8c.8.9 1.8 1.3 3.1 1.3s2.4-.4 3.1-1.3c.8-.9 1.2-2.1 1.2-3.6v-9.3h2.8v9.4c0 2.4-.7 4.3-2 5.6s-3 2-5.1 2-3.8-.7-5.1-2c-1.3-1.3-2-3.2-2-5.6v-9.4h2.8v9.3c0 1.5.4 2.7 1.2 3.6zm22.3 1.3c1 0 1.8-.2 2.5-.5s1.4-.9 2.2-1.6l1.8 1.9c-1.8 2-3.9 3-6.5 3-2.5 0-4.6-.8-6.3-2.4-1.7-1.6-2.5-3.7-2.5-6.2s.9-4.6 2.6-6.2 3.9-2.5 6.5-2.5 4.8 1 6.5 2.9l-1.8 2c-.8-.8-1.6-1.3-2.3-1.6-.7-.3-1.5-.5-2.5-.5-1.7 0-3.1.5-4.3 1.6-1.2 1.1-1.7 2.5-1.7 4.2s.6 3.1 1.7 4.3c1.2 1 2.5 1.6 4.1 1.6zm10 2.5V16.4h2.8v7.3h8.3v-7.3h2.8v16.8h-2.7v-6.9h-8.3v6.9h-2.9zm26.1-3.3c1.8 0 3.3-.7 4.5-2.2l2.4 2.5c-1.9 2.1-4.1 3.2-6.7 3.2s-4.7-.8-6.4-2.4c-1.7-1.6-2.5-3.7-2.5-6.2s.9-4.6 2.6-6.2c1.7-1.7 3.8-2.5 6.3-2.5 2.8 0 5.1 1 6.9 3.1l-2.3 2.6c-1.2-1.5-2.7-2.2-4.4-2.2-1.4 0-2.6.5-3.6 1.4s-1.5 2.2-1.5 3.7c0 1.6.5 2.8 1.4 3.8.8.9 2 1.4 3.3 1.4zm23.6 1c-1.7 1.7-3.8 2.5-6.3 2.5s-4.6-.8-6.3-2.5c-1.7-1.7-2.5-3.7-2.5-6.2s.8-4.5 2.5-6.2 3.8-2.5 6.3-2.5 4.6.8 6.3 2.5c1.7 1.7 2.5 3.7 2.5 6.2.1 2.5-.8 4.6-2.5 6.2zm-1.2-6.2c0-1.5-.5-2.8-1.4-3.8s-2.1-1.6-3.5-1.6-2.6.5-3.5 1.6-1.4 2.3-1.4 3.8.5 2.8 1.4 3.8 2.1 1.6 3.5 1.6 2.6-.5 3.5-1.6 1.4-2.3 1.4-3.8zm18.5-8.3v3.3h-7.8v3.6h7.4v3.3h-7.4v6.6H195V16.4h11.5zm14.6 0v3.3h-7.8v3.6h7.4v3.3h-7.4v6.6h-3.7V16.4h11.5zm15.3 0v3.3H228v3.5h7.5v3.2H228v3.5h8.6v3.3h-12.4V16.4h12.2zm15.7 0v3.3h-8.4v3.5h7.5v3.2h-7.5v3.5h8.6v3.3h-12.4V16.4h12.2z"></path>
		</symbol>
	
		<symbol id="behance" viewBox="0 0 30 19">
			<title>Behance</title><path d="M27.037 2.63h-7.502V.783h7.503V2.63h-.001zm-12.496 7.575c.484.743.726 1.645.726 2.705 0 1.095-.272 2.078-.827 2.946a5.125 5.125 0 0 1-1.318 1.45c-.593.453-1.295.762-2.102.928-.81.166-1.686.25-2.63.25H0V.017h8.997c2.267.037 3.875.688 4.824 1.967.57.784.852 1.726.852 2.82 0 1.129-.286 2.032-.86 2.719-.32.384-.793.734-1.42 1.05.949.344 1.668.886 2.148 1.632zM4.296 7.297h3.942c.81 0 1.465-.152 1.97-.457.503-.305.755-.846.755-1.624 0-.859-.333-1.43-1-1.703-.575-.191-1.309-.29-2.2-.29H4.296v4.074zm7.046 5.349c0-.96-.395-1.622-1.184-1.978-.442-.202-1.065-.306-1.863-.313H4.296v4.921h3.937c.809 0 1.435-.105 1.886-.324.815-.402 1.223-1.168 1.223-2.306zM29.82 9.642c.091.604.132 1.48.115 2.626H20.22c.054 1.33.516 2.26 1.394 2.791.53.334 1.172.497 1.924.497.792 0 1.438-.199 1.936-.607.27-.217.51-.522.716-.908h3.561c-.093.786-.522 1.582-1.292 2.391-1.194 1.286-2.868 1.931-5.018 1.931-1.777 0-3.342-.544-4.701-1.628-1.354-1.087-2.035-2.851-2.035-5.298 0-2.295.611-4.052 1.836-5.274 1.23-1.225 2.818-1.835 4.774-1.835 1.16 0 2.205.206 3.138.619.93.413 1.698 1.064 2.303 1.959.548.787.9 1.698 1.064 2.736zm-3.505.344c-.065-.919-.375-1.615-.932-2.09-.553-.477-1.244-.716-2.068-.716-.897 0-1.59.256-2.081.759-.496.501-.804 1.184-.93 2.047h6.011z"></path>
		</symbol>
	
		<symbol id="fb" viewBox="0 0 15 27">
			<title>Shape</title><path d="M14.176.006L10.648 0C6.685 0 4.124 2.58 4.124 6.573v3.031H.577a.55.55 0 0 0-.555.545v4.391a.55.55 0 0 0 .555.545h3.547v11.08a.55.55 0 0 0 .554.545h4.628a.55.55 0 0 0 .555-.545v-11.08h4.147a.55.55 0 0 0 .555-.545l.002-4.391a.54.54 0 0 0-.163-.385.56.56 0 0 0-.392-.16H9.86v-2.57c0-1.234.3-1.86 1.94-1.86l2.376-.002a.55.55 0 0 0 .554-.544V.55a.55.55 0 0 0-.554-.544z"></path>
		</symbol>
	
		<symbol id="github" viewBox="0 0 30 23">
			<title>Github__x28_alt_x29_</title><path d="M21.903 0c.39.873.643 2.323.266 3.385 1.541 1.297 2.071 4.451 1.327 7.03 2.197.164 4.815-.08 6.504.584-1.58-.2-3.736-.592-5.773-.456-.386.026-.958-.014-.93.521 2.358.182 4.701.381 6.637.977-1.92-.31-4.251-.78-6.637-.846-.986 1.917-2.97 2.86-5.708 3.058.295.632.858.872.996 1.887.205 1.518-.321 3.74.198 4.751.25.485.656.498.93.912-.67.782-2.333-.088-2.523-.912-.324-1.411.494-3.599-.397-4.555.063 1.539-.37 3.7.066 5.076.172.54.668.75.531 1.237-3.117.312-1.814-3.977-2.324-6.509-.47.033-.263.694-.265.977-.013 2.472.513 5.863-2.19 5.532-.079-.52.363-.696.531-1.17.493-1.391-.092-3.464.134-5.143-1.032.767.108 3.443-.531 4.816-.369.79-1.556 1.133-2.456.78.117-.587.733-.492.995-1.04.365-.764.002-1.865.133-2.994-1.91.376-3.391-.055-4.116-1.237-.325-.53-.405-1.156-.797-1.627-.39-.47-1.013-.533-1.194-1.17 2.365-.561 2.456 2.399 4.58 2.472.651.023.99-.185 1.592-.325.169-.746.53-1.303 1.062-1.693-2.643-.356-4.825-1.168-5.84-3.123a36.717 36.717 0 0 0-6.638.91c1.848-.66 4.128-.898 6.572-.976-.144-.853-1.407-.618-2.19-.585-1.457.063-3.29.241-4.448.455 1.678-.59 4.033-.516 6.306-.52-.695-2.15-.454-5.563 1.062-6.834C6.938 2.577 7.072.83 7.633 0c1.693.075 2.72.803 3.784 1.497 1.319-.37 2.706-.553 4.513-.455.76.041 1.55.378 2.123.325.562-.052 1.18-.674 1.726-.91.71-.31 1.311-.428 2.124-.457z"></path>
		</symbol>
	
		<symbol id="in" viewBox="0 0 26 25">
			<title>LinkedIn</title><path d="M26 15.327V25h-5.573v-9.025c0-2.267-.806-3.814-2.823-3.814-1.54 0-2.456 1.043-2.86 2.051-.146.36-.184.863-.184 1.368V25H8.986s.075-15.285 0-16.869h5.574v2.392l-.037.054h.037v-.054c.74-1.148 2.063-2.788 5.023-2.788 3.668 0 6.417 2.411 6.417 7.592zM3.154 0C1.247 0 0 1.259 0 2.914 0 4.534 1.211 5.83 3.08 5.83h.038c1.944 0 3.153-1.297 3.153-2.916C6.234 1.259 5.06 0 3.154 0zM.331 25h5.572V8.131H.331V25z"></path>
		</symbol>
	
		<symbol id="tw" viewBox="0 0 26 22">
			<title>twitter-logo-silhouette</title><path d="M26 2.525c-.957.425-1.984.713-3.063.842A5.368 5.368 0 0 0 25.282.41a10.734 10.734 0 0 1-3.39 1.298A5.312 5.312 0 0 0 18 .018c-2.946 0-5.334 2.396-5.334 5.348 0 .419.047.828.138 1.219A15.128 15.128 0 0 1 1.812.996a5.32 5.32 0 0 0-.722 2.689 5.35 5.35 0 0 0 2.372 4.451 5.323 5.323 0 0 1-2.416-.671v.067a5.35 5.35 0 0 0 4.278 5.244 5.37 5.37 0 0 1-1.405.188c-.345 0-.678-.034-1.004-.1a5.338 5.338 0 0 0 4.981 3.715 10.682 10.682 0 0 1-6.624 2.286c-.43 0-.854-.026-1.272-.073a15.045 15.045 0 0 0 8.176 2.406c9.811 0 15.174-8.15 15.174-15.217l-.018-.693A10.668 10.668 0 0 0 26 2.525z"></path>
		</symbol>
	
</svg>
